<svg xmlns="http://www.w3.org/2000/svg" viewBox="0 0 32 32"><title>39-Alarm</title><g id="_39-Alarm" data-name="39-Alarm"><path d="M31.89,27.55l-2-4A1,1,0,0,0,29,23H28V15A12.31,12.31,0,0,0,19,3.2V2a2,2,0,0,0-2-2H15a2,2,0,0,0-2,2V3.2A12.31,12.31,0,0,0,4,15v8H3a1,1,0,0,0-.89.55l-2,4A1,1,0,0,0,1,29H12.14a4,4,0,0,0,7.72,0H31a1,1,0,0,0,.89-1.45ZM2.62,27l1-2H23V23H6V15A10.25,10.25,0,0,1,14.18,5,1,1,0,0,0,15,4V2h2V4a1,1,0,0,0,.82,1A10.25,10.25,0,0,1,26,15v9a1,1,0,0,0,1,1h1.38l1,2Z"/><path d="M9,14h2c0-3.83,2.7-4,3-4V8C12.27,8,9,9.25,9,14Z"/></g></svg>